<svg xmlns="http://www.w3.org/2000/svg" viewBox="0 0 1813 2308"
  fill="currentColor">
  <path
    d="M1737.69 856.44C1693.22 814.01 1635.75 792.3 1575.52 790.37C1586.33 652.34 1508.1 526.33 1383.98 495.22C1371.26 492.03 1358.49 489.96 1345.76 488.93C1386.73 449.57 1417.68 396.09 1431.41 333.73C1464.86 181.76 1383.4 34.6701 1249.45 5.18012C1128.59 -21.4199 1006.31 56.8301 959 184.01C903.84 127.49 828.14 96.8901 749.36 107.28C608.17 125.89 510.6 269.07 531.43 427.07C532.01 431.5 532.7 435.89 533.45 440.25C483.65 421.07 429.62 417.15 377.15 432.32C237.11 472.79 160.06 634.12 201.14 796.31C129.16 811.17 66.0198 853.52 29.8198 919.14C-40.1002 1045.91 17.0598 1211.47 157.5 1288.93C250.19 1340.06 355.99 1340.01 437.32 1297.63C428.98 1329.32 425.24 1363.08 426.85 1397.84C388.25 1409.08 354.39 1430.76 329.8 1462.8C256.69 1558.11 293.25 1708.88 411.46 1799.55C480.3 1852.35 561.64 1873.12 632.02 1862.44L624.11 1866.8L867.14 2307.92L871.12 2305.73L873.56 2305.08L876.23 2304.96L880.52 2305.74L884.49 2307.93L1060.51 1988.44C1172.29 2069.21 1341.2 2030.95 1440.83 1901.06C1541.97 1769.2 1533.42 1592.86 1421.73 1507.18C1415.21 1502.18 1408.47 1497.61 1401.55 1493.44C1407.21 1478.9 1412.06 1463.81 1415.97 1448.21C1424.08 1415.85 1427.67 1383.55 1427.21 1352.12C1524.35 1376.45 1638.52 1343.5 1720.42 1257.66C1835.63 1136.91 1843.36 957.28 1737.68 856.45L1737.69 856.44ZM1028.34 504.5C1036.33 511.53 1044.78 518.02 1053.65 523.88C1041.77 524.87 1030 526.69 1018.39 529.31C1022.06 521.25 1025.38 512.97 1028.34 504.5ZM906.11 1826.94C924.43 1822.83 941.57 1815.96 957.32 1806.75L881.54 2225.23L863.16 1831.2C877.43 1831.52 891.8 1830.15 906.11 1826.94ZM567.86 1069.25C583.66 1068.02 599.47 1065.19 615.14 1060.66C621.62 1058.79 627.95 1056.65 634.16 1054.27C641.13 1065.89 649.01 1077.23 657.77 1088.19C624.27 1093.02 593.13 1104.46 565.25 1121.22C567.96 1104.03 568.8 1086.62 567.87 1069.25H567.86ZM754.71 1795.15C782.68 1813.93 813.43 1826.01 845.08 1829.89L863.5 2224.86L750.2 1800.47C751.73 1798.73 753.24 1796.96 754.71 1795.15ZM969.82 1838.74C979.18 1892.77 1004.77 1941.6 1046.2 1977.13L895.09 2251.42L969.82 1838.74ZM824.09 679.55C814.59 696.37 806.37 714.29 799.62 733.15C799.22 733.15 798.83 733.15 798.43 733.14C796.08 717.09 792.61 700.95 787.95 684.82C787.61 683.65 787.25 682.5 786.9 681.34C799.17 681.73 811.58 681.16 824.08 679.55H824.09ZM735.52 1815.29L847.61 2235.14L641.39 1860.83C676.99 1853.91 709.43 1838.7 735.52 1815.29Z"
  />
</svg>