<svg xmlns="http://www.w3.org/2000/svg" width="593" height="755" viewBox="0 0 593 755" fill="none">
<path d="M568.638 280.51C554.086 266.613 535.279 259.503 515.57 258.871C519.108 213.662 493.508 172.389 452.892 162.2C448.729 161.155 444.55 160.477 440.385 160.14C453.791 147.248 463.919 129.732 468.412 109.307C479.358 59.5324 452.702 11.356 408.869 1.69712C369.319 -7.01518 329.305 18.6141 313.823 60.2693C295.773 41.7573 271.001 31.7349 245.222 35.138C199.02 41.2333 167.091 88.1291 173.908 139.879C174.097 141.33 174.323 142.768 174.569 144.196C158.272 137.914 140.592 136.63 123.422 141.598C77.596 154.854 52.3825 207.694 65.8253 260.816C42.271 265.683 21.6094 279.554 9.76351 301.047C-13.1167 342.568 5.58799 396.793 51.5448 422.164C81.8762 438.911 116.498 438.894 143.112 425.013C140.382 435.393 139.159 446.45 139.685 457.835C127.054 461.517 115.974 468.618 107.927 479.112C84.0032 510.329 95.9669 559.71 134.649 589.407C157.176 606.701 183.793 613.504 206.824 610.006L206.53 610.169L286.058 754.65L286.094 754.63L286.166 754.902L286.404 754.836L286.411 754.957L286.738 754.941L287.059 755L287.124 754.636L287.147 754.65L344.927 649.676C345.081 649.797 345.231 649.922 345.385 650.04C381.934 678.099 438.395 665.837 471.492 622.652C504.588 579.464 501.79 521.707 465.241 493.644C463.108 492.006 460.902 490.51 458.638 489.144C460.49 484.382 462.077 479.439 463.357 474.33C466.01 463.731 467.185 453.152 467.035 442.857C498.822 450.826 536.183 440.034 562.983 411.919C600.684 372.37 603.213 313.535 568.631 280.51H568.638ZM336.514 165.239C339.128 167.542 341.894 169.668 344.796 171.587C340.909 171.911 337.057 172.507 333.258 173.365C334.459 170.726 335.545 168.014 336.514 165.239ZM185.829 350.212C190.999 349.809 196.173 348.882 201.3 347.399C203.421 346.786 205.492 346.085 207.524 345.306C209.805 349.112 212.384 352.826 215.251 356.416C204.288 357.997 194.098 361.744 184.975 367.234C185.862 361.604 186.136 355.901 185.832 350.212H185.829ZM246.973 587.966C256.898 594.635 267.896 598.726 279.176 599.607L286.319 752.924L243.389 591.979C244.636 590.704 245.831 589.368 246.969 587.966H246.973ZM279.834 599.656C285.361 600.026 290.953 599.63 296.516 598.382C303.63 596.787 310.194 593.914 316.104 589.997C316.111 590.223 316.121 590.449 316.13 590.675L286.935 752.042L279.834 599.656ZM269.676 222.574C266.567 228.083 263.878 233.952 261.669 240.129C261.538 240.129 261.41 240.129 261.279 240.126C260.51 234.869 259.375 229.583 257.85 224.3C257.739 223.917 257.621 223.54 257.506 223.16C261.521 223.288 265.582 223.101 269.673 222.574H269.676ZM207.165 609.953C220.902 607.805 233.347 601.978 242.859 592.516L285.442 752.164L207.165 609.953ZM287.481 752.694L316.287 593.472C317.897 615.515 327.351 635.687 344.413 649.264L287.481 752.694Z" fill="black"/>
</svg>