<svg xmlns="http://www.w3.org/2000/svg" viewBox="0 0 24 24" fill="currentColor">
  <path fill-rule="evenodd" clip-rule="evenodd"
    d="M12.0418 18.0444C16.0066 17.6694 19.1472 12.6048 19.1472 8.57728C19.1472 4.39246 15.7564 1 11.5736 1C7.39082 1 4 4.39246 4 8.57728C4 12.6049 7.14084 17.6696 11.1057 18.0445L10.4164 18.6235C10.3272 18.6587 10.2769 18.6985 10.2769 18.7406C10.2769 18.8747 10.7855 18.985 11.4378 18.9986C11.4273 19.0789 11.3995 19.1541 11.3705 19.2324C11.3524 19.2813 11.3338 19.3313 11.3188 19.3845C11.3044 19.4355 11.2881 19.5133 11.3126 19.5928C11.3395 19.6797 11.401 19.727 11.4635 19.7537C11.5253 19.7801 11.6065 19.7945 11.7071 19.8017C11.7971 19.8082 11.9086 19.8092 12.0457 19.805C12.043 19.8225 12.0371 19.8477 12.0255 19.8818C11.9861 19.9975 11.9048 20.1489 11.8092 20.3113C11.7703 20.3774 11.7281 20.4467 11.6869 20.5144C11.6323 20.604 11.5796 20.6906 11.5389 20.7625C11.5026 20.8266 11.4694 20.8898 11.4489 20.9437C11.439 20.9698 11.4282 21.0036 11.4247 21.0396C11.4213 21.0748 11.4228 21.143 11.4712 21.1935C11.5471 21.2726 11.6388 21.2903 11.7143 21.2921C11.7669 21.2934 11.8261 21.2863 11.875 21.2805C11.8925 21.2784 11.9087 21.2764 11.9228 21.2751C11.9876 21.269 12.0213 21.2734 12.0387 21.2828C12.0431 21.2849 12.0563 21.2912 12.0631 21.3469C12.087 21.5427 12.0386 21.6716 11.9599 21.8047C11.9336 21.8492 11.9075 21.8887 11.8791 21.9316C11.8601 21.9601 11.8401 21.9903 11.8184 22.0245C11.7677 22.1044 11.7154 22.1949 11.6748 22.3024C11.6483 22.3725 11.6738 22.4553 11.7318 22.4873C11.7897 22.5194 11.8582 22.4885 11.8847 22.4184C11.9148 22.3388 11.955 22.2675 12.0014 22.1945C12.0168 22.1702 12.0343 22.1437 12.0525 22.1162C12.0846 22.0677 12.1188 22.0159 12.1477 21.967C12.2473 21.7985 12.3269 21.5976 12.2914 21.3062C12.2753 21.1739 12.2224 21.0762 12.132 21.0275C12.0557 20.9864 11.9686 20.9908 11.9047 20.9969C11.8802 20.9992 11.8579 21.0019 11.8371 21.0044C11.794 21.0096 11.7571 21.014 11.7188 21.0131C11.7045 21.0127 11.6921 21.0116 11.6812 21.0097C11.6936 20.9848 11.7096 20.9549 11.7293 20.9202C11.7694 20.8494 11.8167 20.7717 11.8681 20.6875C11.9091 20.6202 11.9527 20.5488 11.9972 20.4732C12.0922 20.3119 12.1882 20.1368 12.2389 19.988C12.2637 19.9153 12.284 19.831 12.2772 19.7497C12.2736 19.7065 12.262 19.6611 12.2372 19.6205C12.2122 19.5795 12.1787 19.5514 12.1419 19.5338L12.1197 19.5231L12.0957 19.524C11.9352 19.5303 11.813 19.5298 11.7207 19.5231C11.6269 19.5164 11.5714 19.5038 11.5402 19.4905L11.5338 19.4876C11.5347 19.484 11.5358 19.4797 11.5372 19.4747C11.5427 19.4552 11.5529 19.4293 11.5652 19.3978C11.6013 19.3058 11.656 19.1662 11.6681 18.9993C12.3403 18.9897 12.8706 18.8775 12.8706 18.7406C12.8706 18.6985 12.8204 18.6587 12.7312 18.6235L12.0418 18.0444ZM8.45228 3.90005C6.66393 3.37618 5.40691 6.45115 5.40018 7.78261C5.39621 8.56745 6.16668 8.90449 6.77988 8.56036C6.77988 8.56036 7.87297 6.67657 9.34083 5.00644C9.74366 4.54809 9.21236 4.1227 8.45228 3.90005Z"
  />
</svg>