<svg xmlns="http://www.w3.org/2000/svg" viewBox="0 0 24 24" fill="currentColor">
  <path
    d="M19.6414 4.35426C19.1634 3.88191 18.3887 3.88191 17.9107 4.35426L11.9032 10.2913L6.08927 4.54555C5.61132 4.0732 4.83659 4.0732 4.35864 4.54555C3.88045 5.01813 3.88045 5.78449 4.35864 6.25707L10.172 12.0023L4.36364 17.7425C3.88546 18.2151 3.88546 18.9815 4.36364 19.454C4.84159 19.9264 5.61633 19.9264 6.09428 19.454L11.9032 13.7132L17.9057 19.6453C18.3837 20.1177 19.1584 20.1177 19.6364 19.6453C20.1145 19.1728 20.1145 18.4064 19.6364 17.9338L13.6345 12.0023L19.6414 6.06578C20.1195 5.5932 20.1195 4.82684 19.6414 4.35426Z"
  />
</svg>