<svg xmlns="http://www.w3.org/2000/svg" viewBox="0 0 24 24" fill="currentColor">
  <path
    d="M9.60654 14.4835H4.6662V13.1589H9.60654V14.4835ZM11.3077 16.3077H9.61819L6.89168 9.10382H7.35775L4.63124 16.3077H3L6.28579 8H8.0219L11.3077 16.3077Z"
  />
  <path
    d="M12.6924 16.3077V16.0164L12.7889 16.0047C13.039 15.9659 13.2427 15.9115 13.3999 15.8416C13.5642 15.7717 13.7036 15.6591 13.8179 15.5037C13.9394 15.3406 14.0538 15.1192 14.161 14.8396L16.7551 8H17.1196L19.6494 14.8396C19.7923 15.2202 19.946 15.4998 20.1103 15.6785C20.2747 15.8572 20.4998 15.962 20.7857 15.9931L21.0001 16.0164V16.3077L19.6708 16.2727L17.9557 16.3077V16.0164L18.1701 15.9931C18.4202 15.962 18.5989 15.9038 18.7061 15.8183C18.8133 15.7329 18.8669 15.6125 18.8669 15.4571C18.8669 15.3018 18.8168 15.092 18.7168 14.8279L18.1594 13.3132H15.1365L14.5576 14.8279C14.5076 14.9677 14.4647 15.0959 14.429 15.2124C14.3932 15.3212 14.3754 15.4183 14.3754 15.5037C14.3754 15.6513 14.4325 15.7639 14.5469 15.8416C14.6684 15.9193 14.8649 15.9698 15.1365 15.9931L15.3508 16.0164V16.3077L13.9895 16.2727L12.6924 16.3077ZM15.2758 12.9403H18.0307L16.6801 9.24674L15.2758 12.9403Z"
  />
</svg>