<svg xmlns="http://www.w3.org/2000/svg" viewBox="0 0 24 24" fill="currentColor">
  <path
    d="M20.2604 9.50692C19.8187 9.08547 19.2479 8.86983 18.6496 8.85066C18.757 7.47962 17.9799 6.22798 16.7471 5.91897C16.6207 5.88729 16.4939 5.86672 16.3674 5.85649C16.7744 5.46554 17.0818 4.93433 17.2182 4.31491C17.5504 2.80541 16.7413 1.34439 15.4108 1.05147C14.2103 0.787254 12.9957 1.5645 12.5258 2.82776C11.9779 2.26636 11.226 1.96241 10.4435 2.06561C9.04104 2.25046 8.07189 3.67265 8.27879 5.24205C8.28455 5.28605 8.2914 5.32965 8.29885 5.37296C7.8042 5.18245 7.26752 5.14351 6.74634 5.29419C5.35535 5.69618 4.59002 7.29865 4.99806 8.90966C4.28309 9.05726 3.65593 9.47792 3.29636 10.1297C2.60186 11.3889 3.16962 13.0334 4.56459 13.8028C5.48527 14.3107 6.53617 14.3102 7.34401 13.8892C7.26117 14.204 7.22402 14.5393 7.24001 14.8846C6.8566 14.9962 6.52027 15.2116 6.27602 15.5298C5.54983 16.4765 5.91298 17.9741 7.08714 18.8747C7.77092 19.3992 8.57886 19.6055 9.27794 19.4994L9.19937 19.5427L11.6134 23.9243L11.6529 23.9025L11.6771 23.8961L11.7036 23.8949L11.7463 23.9026L11.7857 23.9244L13.5341 20.7509C14.6444 21.5532 16.3221 21.1732 17.3117 19.883C18.3163 18.5732 18.2314 16.8217 17.122 15.9706C17.0573 15.921 16.9903 15.8756 16.9216 15.8342C16.9778 15.6897 17.026 15.5398 17.0648 15.3849C17.1454 15.0635 17.181 14.7426 17.1765 14.4304C18.1413 14.6721 19.2754 14.3448 20.0889 13.4922C21.2332 12.2928 21.31 10.5086 20.2603 9.50702L20.2604 9.50692ZM13.2145 6.01115C13.2939 6.08098 13.3778 6.14544 13.4659 6.20365C13.3479 6.21348 13.231 6.23156 13.1157 6.25758C13.1522 6.17752 13.1851 6.09528 13.2145 6.01115ZM12.0004 19.1468C12.1824 19.1059 12.3527 19.0377 12.5091 18.9462L11.7564 23.1029L11.5738 19.1891C11.7156 19.1923 11.8583 19.1787 12.0004 19.1468ZM8.64064 11.6207C8.79758 11.6085 8.95462 11.5804 9.11027 11.5354C9.17463 11.5168 9.23751 11.4956 9.29919 11.4719C9.36842 11.5874 9.44669 11.7 9.53371 11.8089C9.20096 11.8568 8.89165 11.9705 8.61472 12.1369C8.64164 11.9662 8.64998 11.7933 8.64074 11.6207H8.64064ZM10.4966 18.831C10.7744 19.0175 11.0799 19.1375 11.3942 19.1761L11.5772 23.0993L10.4518 18.8838C10.467 18.8666 10.482 18.849 10.4966 18.831ZM12.6333 19.264C12.7262 19.8007 12.9804 20.2857 13.3919 20.6386L11.891 23.3631L12.6333 19.264ZM11.1857 7.7499C11.0914 7.91697 11.0097 8.09497 10.9427 8.2823C10.9387 8.2823 10.9348 8.2823 10.9309 8.2822C10.9075 8.12278 10.8731 7.96246 10.8268 7.80224C10.8234 7.79062 10.8198 7.7792 10.8163 7.76768C10.9382 7.77155 11.0615 7.76589 11.1856 7.7499H11.1857ZM10.306 19.0311L11.4194 23.2014L9.37101 19.4834C9.72462 19.4147 10.0468 19.2636 10.306 19.0311Z"
  />
</svg>