<svg xmlns="http://www.w3.org/2000/svg" viewBox="0 0 24 24" fill="currentColor">
  <path
    d="M11.2106 15.0803H5.07076V13.4295H11.2106V15.0803ZM13.3248 17.3538H11.2251L7.83659 8.37568H8.41583L5.02732 17.3538H3L7.08359 7H9.24123L13.3248 17.3538Z"
  />
  <path
    d="M21 17.3538H19.2623V15.8912L19.1754 15.6595V12.9227C19.1754 12.411 19.0113 12.0152 18.6831 11.7352C18.3548 11.4553 17.9059 11.3153 17.3364 11.3153C16.9212 11.3153 16.5303 11.3973 16.1634 11.5615C15.8062 11.7159 15.4925 11.938 15.2222 12.2276L14.223 11.0691C14.6091 10.683 15.0773 10.3837 15.6276 10.1713C16.1779 9.94926 16.7764 9.83824 17.4232 9.83824C18.128 9.83824 18.7506 9.95891 19.2913 10.2003C19.8319 10.4416 20.2518 10.7891 20.5511 11.2429C20.8504 11.687 21 12.2324 21 12.8792V17.3538ZM16.7861 17.5855C16.2262 17.5855 15.7338 17.4841 15.309 17.2814C14.8843 17.0787 14.5512 16.7987 14.3099 16.4415C14.0782 16.0843 13.9623 15.6692 13.9623 15.1961C13.9623 14.6941 14.1071 14.2694 14.3967 13.9218C14.6864 13.5646 15.0967 13.2895 15.6276 13.0964C16.1682 12.9033 16.7909 12.8068 17.4956 12.8068H19.3637V14.0522H17.6404C17.1191 14.0522 16.6992 14.1439 16.3806 14.3273C16.062 14.5107 15.9028 14.7762 15.9028 15.1237C15.9028 15.4423 16.0234 15.6933 16.2648 15.8767C16.5158 16.0602 16.8392 16.1519 17.235 16.1519C17.6115 16.1519 17.9542 16.0746 18.2631 15.9202C18.572 15.7561 18.823 15.534 19.0161 15.2541C19.2092 14.9741 19.3202 14.6555 19.3492 14.2983L19.8995 14.559C19.8995 15.1575 19.7691 15.6837 19.5085 16.1374C19.2478 16.5911 18.881 16.9483 18.4079 17.209C17.9445 17.46 17.4039 17.5855 16.7861 17.5855Z"
  />
</svg>